<?xml version="1.0" encoding="utf-8" standalone="no"?>
<!DOCTYPE svg PUBLIC "-//W3C//DTD SVG 1.1//EN" "http://www.w3.org/Graphics/SVG/1.1/DTD/svg11.dtd">
<svg version="1.1" width="113.3pt" height="113.3pt" viewBox="0 0 113.28 113.28" xmlns="http://www.w3.org/2000/svg">
  <g id="Layer_01">
    <path d="M24.077784,51.545467 C22.130547,51.545467 20.18331,51.545467 18.236074,51.545467 C18.236074,51.975227 18.236074,52.40499 18.236074,52.83475 C18.943468,52.83475 19.650862,52.83475 20.358257,52.83475 C20.358257,55.05962 20.358257,57.284492 20.358257,59.50936 C20.890705,59.50936 21.423151,59.50936 21.9556,59.50936 C21.9556,57.284492 21.9556,55.05962 21.9556,52.83475 C22.662992,52.83475 23.370388,52.83475 24.077784,52.83475 C24.077784,52.40499 24.077784,51.975227 24.077784,51.545467 z" stroke="Black" stroke-width="0" fill="#000000" fill-opacity="1" />
    <path d="M26.838903,54.169674 C26.838903,53.842598 26.838903,53.515522 26.838903,53.188446 C26.306456,53.188446 25.774008,53.188446 25.241562,53.188446 C25.241562,55.29542 25.241562,57.40239 25.241562,59.50936 C25.774008,59.50936 26.306456,59.50936 26.838903,59.50936 C26.838903,58.459675 26.838903,57.409996 26.838903,56.360313 C26.838903,55.77462 26.96631,55.363876 27.221123,55.12808 C27.475939,54.89228 27.854355,54.774384 28.356377,54.774384 C28.497095,54.774384 28.637814,54.774384 28.778532,54.774384 C28.778532,54.21531 28.778532,53.656242 28.778532,53.09717 C28.352575,53.09717 27.974157,53.192253 27.643278,53.382412 C27.3124,53.57257 27.044275,53.83499 26.838903,54.169674 z" stroke="Black" stroke-width="0" fill="#000000" fill-opacity="1" />
    <path d="M29.440289,56.326084 C29.440289,56.97263 29.567696,57.54501 29.82251,58.04323 C30.077324,58.541447 30.423414,58.92747 30.860783,59.2013 C31.298151,59.475132 31.783058,59.612045 32.315506,59.612045 C32.787098,59.612045 33.203552,59.515064 33.564854,59.3211 C33.92616,59.12714 34.209496,58.881832 34.41487,58.585186 C34.41487,58.89324 34.41487,59.2013 34.41487,59.50936 C34.951122,59.50936 35.48737,59.50936 36.02362,59.50936 C36.02362,57.40239 36.02362,55.29542 36.02362,53.188446 C35.48737,53.188446 34.951122,53.188446 34.41487,53.188446 C34.41487,53.488903 34.41487,53.789352 34.41487,54.089806 C34.20189,53.800762 33.918552,53.56116 33.564854,53.371 C33.21116,53.18084 32.79851,53.085762 32.326916,53.085762 C31.78686,53.085762 31.298151,53.218872 30.860783,53.485096 C30.423414,53.75132 30.077324,54.13164 29.82251,54.626057 C29.567696,55.12047 29.440289,55.68715 29.440289,56.326084 z M34.41487,56.348904 C34.41487,56.73683 34.338806,57.06961 34.186676,57.34724 C34.03455,57.624878 33.829178,57.837852 33.57056,57.98618 C33.311943,58.134502 33.03431,58.208668 32.73766,58.208668 C32.44862,58.208668 32.17669,58.132603 31.921875,57.980476 C31.66706,57.828346 31.461687,57.609665 31.305758,57.32442 C31.149826,57.039185 31.07186,56.706406 31.07186,56.326084 C31.07186,55.945766 31.149826,55.616787 31.305758,55.339157 C31.461687,55.06152 31.665157,54.850445 31.91617,54.70592 C32.167183,54.5614 32.441013,54.48914 32.73766,54.48914 C33.03431,54.48914 33.311943,54.5633 33.57056,54.711628 C33.829178,54.85995 34.03455,55.072933 34.186676,55.350563 C34.338806,55.6282 34.41487,55.96098 34.41487,56.348904 z" stroke="Black" stroke-width="0" fill="#000000" fill-opacity="1" />
    <path d="M37.17599,56.326084 C37.17599,56.97263 37.303394,57.54501 37.55821,58.04323 C37.813026,58.541447 38.16102,58.92747 38.60219,59.2013 C39.043358,59.475132 39.530167,59.612045 40.062614,59.612045 C40.53421,59.612045 40.948757,59.516968 41.30626,59.326805 C41.66376,59.136646 41.941395,58.885635 42.13916,58.573772 C42.13916,58.885635 42.13916,59.197495 42.13916,59.50936 C42.679214,59.50936 43.219265,59.50936 43.759323,59.50936 C43.759323,56.694992 43.759323,53.88063 43.759323,51.066265 C43.219265,51.066265 42.679214,51.066265 42.13916,51.066265 C42.13916,52.066505 42.13916,53.066746 42.13916,54.066986 C41.918575,53.77034 41.621925,53.53264 41.249214,53.353886 C40.8765,53.175137 40.484768,53.085762 40.074024,53.085762 C39.533974,53.085762 39.043358,53.218872 38.60219,53.485096 C38.16102,53.75132 37.813026,54.13164 37.55821,54.626057 C37.303394,55.12047 37.17599,55.68715 37.17599,56.326084 z M42.15057,56.348904 C42.15057,56.73683 42.074505,57.06961 41.92238,57.34724 C41.77025,57.624878 41.56488,57.837852 41.30626,57.98618 C41.04764,58.134502 40.77001,58.208668 40.473362,58.208668 C40.18432,58.208668 39.912388,58.132603 39.657578,57.980476 C39.402763,57.828346 39.197388,57.609665 39.04146,57.32442 C38.885525,57.039185 38.80756,56.706406 38.80756,56.326084 C38.80756,55.945766 38.885525,55.616787 39.04146,55.339157 C39.197388,55.06152 39.40086,54.850445 39.65187,54.70592 C39.90288,54.5614 40.176712,54.48914 40.473362,54.48914 C40.77001,54.48914 41.04764,54.5633 41.30626,54.711628 C41.56488,54.85995 41.77025,55.072933 41.92238,55.350563 C42.074505,55.6282 42.15057,55.96098 42.15057,56.348904 z" stroke="Black" stroke-width="0" fill="#000000" fill-opacity="1" />
    <path d="M51.19837,56.211987 C51.19837,55.59587 51.06716,55.050114 50.804745,54.574715 C50.54232,54.09931 50.173412,53.732304 49.698013,53.47369 C49.222614,53.215073 48.68446,53.085762 48.083553,53.085762 C47.45983,53.085762 46.90837,53.218872 46.429165,53.485096 C45.949963,53.75132 45.57725,54.13164 45.311028,54.626057 C45.044804,55.12047 44.911694,55.694756 44.911694,56.348904 C44.911694,56.99545 45.046703,57.56593 45.31673,58.06034 C45.586758,58.554756 45.963272,58.936977 46.44628,59.20701 C46.929287,59.47703 47.475044,59.612045 48.083553,59.612045 C48.836586,59.612045 49.47172,59.416183 49.988956,59.024452 C50.50619,58.63272 50.856087,58.132603 51.03864,57.524094 C50.46436,57.524094 49.89007,57.524094 49.315792,57.524094 C49.06478,58.03372 48.642628,58.288536 48.049324,58.288536 C47.638584,58.288536 47.292492,58.159225 47.011055,57.900608 C46.729618,57.64199 46.569885,57.284492 46.531853,56.82811 C48.072147,56.82811 49.612442,56.82811 51.152737,56.82811 C51.18316,56.645554 51.19837,56.44018 51.19837,56.211987 z M49.543983,55.755604 C48.543743,55.755604 47.543503,55.755604 46.54326,55.755604 C46.604115,55.329647 46.76955,54.99687 47.039577,54.757267 C47.309605,54.517666 47.642384,54.397865 48.037918,54.397865 C48.45627,54.397865 48.809967,54.52147 49.09901,54.768677 C49.388054,55.015884 49.536377,55.344864 49.543983,55.755604 z" stroke="Black" stroke-width="0" fill="#000000" fill-opacity="1" />
    <path d="M55.35146,51.545467 C54.355026,51.545467 53.35859,51.545467 52.362152,51.545467 C52.362152,54.200096 52.362152,56.85473 52.362152,59.50936 C52.8946,59.50936 53.427044,59.50936 53.95949,59.50936 C53.95949,58.474888 53.95949,57.44042 53.95949,56.405952 C54.210506,56.405952 54.461514,56.405952 54.712524,56.405952 C55.298218,57.44042 55.88391,58.474888 56.4696,59.50936 C57.08572,59.50936 57.70184,59.50936 58.317955,59.50936 C57.682823,58.433056 57.047688,57.35675 56.41255,56.280445 C57.01346,56.120712 57.46604,55.82977 57.770294,55.40761 C58.07455,54.98546 58.226677,54.51196 58.226677,53.98712 C58.226677,53.53074 58.118286,53.11809 57.901505,52.749176 C57.684723,52.38027 57.35955,52.08742 56.925983,51.87064 C56.49242,51.65386 55.967583,51.545467 55.35146,51.545467 z M55.29442,55.207947 C54.84944,55.207947 54.40447,55.207947 53.95949,55.207947 C53.95949,54.42829 53.95949,53.648636 53.95949,52.86898 C54.40447,52.86898 54.84944,52.86898 55.29442,52.86898 C55.72798,52.86898 56.05125,52.969765 56.264233,53.171333 C56.477207,53.372906 56.5837,53.656242 56.5837,54.021347 C56.5837,54.394062 56.477207,54.685005 56.264233,54.89418 C56.05125,55.103355 55.72798,55.207947 55.29442,55.207947 z" stroke="Black" stroke-width="0" fill="#000000" fill-opacity="1" />
    <path d="M65.551636,56.211987 C65.551636,55.59587 65.420425,55.050114 65.158,54.574715 C64.895584,54.09931 64.52667,53.732304 64.05128,53.47369 C63.575874,53.215073 63.03772,53.085762 62.436817,53.085762 C61.813095,53.085762 61.26163,53.218872 60.78243,53.485096 C60.303223,53.75132 59.93051,54.13164 59.664288,54.626057 C59.398064,55.12047 59.264954,55.694756 59.264954,56.348904 C59.264954,56.99545 59.399963,57.56593 59.669994,58.06034 C59.940018,58.554756 60.316536,58.936977 60.79954,59.20701 C61.282547,59.47703 61.82831,59.612045 62.436817,59.612045 C63.18985,59.612045 63.824986,59.416183 64.342224,59.024452 C64.85945,58.63272 65.20935,58.132603 65.3919,57.524094 C64.81761,57.524094 64.24334,57.524094 63.669052,57.524094 C63.418045,58.03372 62.995884,58.288536 62.402584,58.288536 C61.991844,58.288536 61.645752,58.159225 61.364315,57.900608 C61.08288,57.64199 60.923145,57.284492 60.885113,56.82811 C62.425407,56.82811 63.9657,56.82811 65.506,56.82811 C65.53642,56.645554 65.551636,56.44018 65.551636,56.211987 z M63.897247,55.755604 C62.897007,55.755604 61.89676,55.755604 60.896523,55.755604 C60.957375,55.329647 61.122814,54.99687 61.392838,54.757267 C61.66287,54.517666 61.995644,54.397865 62.391182,54.397865 C62.809532,54.397865 63.163227,54.52147 63.45227,54.768677 C63.741314,55.015884 63.889637,55.344864 63.897247,55.755604 z" stroke="Black" stroke-width="0" fill="#000000" fill-opacity="1" />
    <path d="M68.31275,54.10121 C68.31275,53.79696 68.31275,53.492702 68.31275,53.188446 C67.780304,53.188446 67.247856,53.188446 66.715416,53.188446 C66.715416,56.299465 66.715416,59.410477 66.715416,62.521496 C67.247856,62.521496 67.780304,62.521496 68.31275,62.521496 C68.31275,61.216995 68.31275,59.9125 68.31275,58.608 C68.53334,58.897045 68.82048,59.136646 69.17418,59.326805 C69.52788,59.516968 69.936714,59.612045 70.40071,59.612045 C70.940765,59.612045 71.429474,59.475132 71.86684,59.2013 C72.304214,58.92747 72.6503,58.541447 72.90511,58.04323 C73.15993,57.54501 73.28733,56.97263 73.28733,56.326084 C73.28733,55.679543 73.15993,55.110962 72.90511,54.62035 C72.6503,54.129738 72.304214,53.75132 71.86684,53.485096 C71.429474,53.218872 70.940765,53.085762 70.40071,53.085762 C69.936714,53.085762 69.52407,53.182743 69.162766,53.376705 C68.80146,53.570667 68.51813,53.812176 68.31275,54.10121 z M71.65576,56.326084 C71.65576,56.714012 71.5778,57.04869 71.42187,57.330128 C71.26594,57.611565 71.06057,57.828346 70.80575,57.980476 C70.550934,58.132603 70.27521,58.208668 69.97855,58.208668 C69.68951,58.208668 69.41758,58.134502 69.162766,57.98618 C68.90796,57.837852 68.70258,57.622974 68.54665,57.341537 C68.39072,57.060104 68.31275,56.729225 68.31275,56.348904 C68.31275,55.968586 68.39072,55.637707 68.54665,55.35627 C68.70258,55.074833 68.90796,54.85995 69.162766,54.711628 C69.41758,54.5633 69.68951,54.48914 69.97855,54.48914 C70.27521,54.48914 70.550934,54.5614 70.80575,54.70592 C71.06057,54.850445 71.26594,55.06152 71.42187,55.339157 C71.5778,55.616787 71.65576,55.945766 71.65576,56.326084 z" stroke="Black" stroke-width="0" fill="#000000" fill-opacity="1" />
    <path d="M78.80958,58.71069 C78.80958,58.976913 78.80958,59.243137 78.80958,59.50936 C79.345825,59.50936 79.88207,59.50936 80.41833,59.50936 C80.41833,57.40239 80.41833,55.29542 80.41833,53.188446 C79.88207,53.188446 79.345825,53.188446 78.80958,53.188446 C78.80958,54.348423 78.80958,55.508396 78.80958,56.668373 C78.80958,57.170395 78.68407,57.556416 78.43306,57.826447 C78.18205,58.096474 77.83596,58.231487 77.39478,58.231487 C76.96122,58.231487 76.618935,58.096474 76.36792,57.826447 C76.11691,57.556416 75.99141,57.170395 75.99141,56.668373 C75.99141,55.508396 75.99141,54.348423 75.99141,53.188446 C75.458954,53.188446 74.92651,53.188446 74.394066,53.188446 C74.394066,54.424484 74.394066,55.660526 74.394066,56.896564 C74.394066,57.45944 74.50246,57.944344 74.71924,58.351284 C74.93602,58.75823 75.23457,59.066288 75.61489,59.275463 C75.99521,59.48464 76.43258,59.58923 76.926994,59.58923 C77.31492,59.58923 77.674324,59.51126 78.0052,59.35533 C78.33608,59.1994 78.6042,58.98452 78.80958,58.71069 z" stroke="Black" stroke-width="0" fill="#000000" fill-opacity="1" />
    <path d="M83.590195,54.112625 C83.590195,53.09717 83.590195,52.08172 83.590195,51.066265 C83.05775,51.066265 82.5253,51.066265 81.99285,51.066265 C81.99285,53.88063 81.99285,56.694992 81.99285,59.50936 C82.5253,59.50936 83.05775,59.50936 83.590195,59.50936 C83.590195,59.208908 83.590195,58.908455 83.590195,58.608 C83.80317,58.90465 84.08652,59.146152 84.44021,59.33251 C84.7939,59.518867 85.20655,59.612045 85.67815,59.612045 C86.2182,59.612045 86.70692,59.475132 87.14428,59.2013 C87.58164,58.92747 87.927734,58.541447 88.182556,58.04323 C88.43736,57.54501 88.56477,56.97263 88.56477,56.326084 C88.56477,55.679543 88.43736,55.110962 88.182556,54.62035 C87.927734,54.129738 87.58164,53.75132 87.14428,53.485096 C86.70692,53.218872 86.2182,53.085762 85.67815,53.085762 C85.21416,53.085762 84.80151,53.18084 84.44021,53.371 C84.0789,53.56116 83.79556,53.80837 83.590195,54.112625 z M86.933205,56.326084 C86.933205,56.714012 86.85524,57.04869 86.6993,57.330128 C86.54337,57.611565 86.338,57.828346 86.08319,57.980476 C85.82838,58.132603 85.55264,58.208668 85.256,58.208668 C84.96695,58.208668 84.69502,58.134502 84.44021,57.98618 C84.185394,57.837852 83.98002,57.622974 83.82409,57.341537 C83.66816,57.060104 83.590195,56.729225 83.590195,56.348904 C83.590195,55.968586 83.66816,55.637707 83.82409,55.35627 C83.98002,55.074833 84.185394,54.85995 84.44021,54.711628 C84.69502,54.5633 84.96695,54.48914 85.256,54.48914 C85.55264,54.48914 85.82838,54.5614 86.08319,54.70592 C86.338,54.850445 86.54337,55.06152 86.6993,55.339157 C86.85524,55.616787 86.933205,55.945766 86.933205,56.326084 z" stroke="Black" stroke-width="0" fill="#000000" fill-opacity="1" />
    <path d="M91.3259,51.066265 C90.79345,51.066265 90.261,51.066265 89.728546,51.066265 C89.728546,53.88063 89.728546,56.694992 89.728546,59.50936 C90.261,59.50936 90.79345,59.50936 91.3259,59.50936 C91.3259,56.694992 91.3259,53.88063 91.3259,51.066265 z" stroke="Black" stroke-width="0" fill="#000000" fill-opacity="1" />
    <path d="M93.7105,52.435413 C93.991936,52.435413 94.22583,52.346043 94.41219,52.16729 C94.59854,51.98854 94.69172,51.766056 94.69172,51.499832 C94.69172,51.233604 94.59854,51.01112 94.41219,50.832367 C94.22583,50.653618 93.991936,50.564243 93.7105,50.564243 C93.42906,50.564243 93.19516,50.653618 93.00881,50.832367 C92.82246,51.01112 92.72928,51.233604 92.72928,51.499832 C92.72928,51.766056 92.82246,51.98854 93.00881,52.16729 C93.19516,52.346043 93.42906,52.435413 93.7105,52.435413 z" stroke="Black" stroke-width="0" fill="#000000" fill-opacity="1" />
    <path d="M94.49776,53.188446 C93.96531,53.188446 93.43286,53.188446 92.90042,53.188446 C92.90042,55.29542 92.90042,57.40239 92.90042,59.50936 C93.43286,59.50936 93.96531,59.50936 94.49776,59.50936 C94.49776,57.40239 94.49776,55.29542 94.49776,53.188446 z" stroke="Black" stroke-width="0" fill="#000000" fill-opacity="1" />
    <path d="M95.66154,56.337494 C95.66154,56.968826 95.79084,57.531696 96.04946,58.02611 C96.308075,58.52053 96.659874,58.90655 97.10485,59.18419 C97.54983,59.46182 98.038536,59.600636 98.570984,59.600636 C99.01976,59.600636 99.4229,59.50936 99.780396,59.326805 C100.1379,59.144253 100.42314,58.91606 100.63612,58.64223 C100.63612,59.935318 100.63612,61.228405 100.63612,62.521496 C101.17237,62.521496 101.70862,62.521496 102.24487,62.521496 C102.24487,59.410477 102.24487,56.299465 102.24487,53.188446 C101.70862,53.188446 101.17237,53.188446 100.63612,53.188446 C100.63612,53.462276 100.63612,53.736107 100.63612,54.009937 C100.42314,53.743713 100.1436,53.525032 99.797516,53.353886 C99.45142,53.182743 99.053986,53.09717 98.60521,53.09717 C98.065155,53.09717 97.57075,53.23409 97.12197,53.507915 C96.67319,53.781746 96.31759,54.163967 96.05517,54.65458 C95.79275,55.14519 95.66154,55.70616 95.66154,56.337494 z M100.63612,56.348904 C100.63612,56.73683 100.55625,57.07151 100.396515,57.352947 C100.236786,57.634384 100.02951,57.847366 99.77469,57.991886 C99.51988,58.136406 99.247955,58.208668 98.95891,58.208668 C98.67747,58.208668 98.40935,58.136406 98.154526,57.991886 C97.89972,57.847366 97.692444,57.632484 97.53271,57.34724 C97.37298,57.062004 97.293106,56.725418 97.293106,56.337494 C97.293106,55.94957 97.37298,55.616787 97.53271,55.339157 C97.692444,55.06152 97.89972,54.850445 98.154526,54.70592 C98.40935,54.5614 98.67747,54.48914 98.95891,54.48914 C99.247955,54.48914 99.51988,54.5614 99.77469,54.70592 C100.02951,54.850445 100.236786,55.063427 100.396515,55.344864 C100.55625,55.626297 100.63612,55.96098 100.63612,56.348904 z" stroke="Black" stroke-width="0" fill="#000000" fill-opacity="1" />
    <path d="M106.66869,53.147446 C106.54134,53.147446 106.414,53.147446 106.28665,53.147446 C106.10773,53.565754 105.9288,53.98406 105.74987,54.402367 C105.57094,53.98406 105.39201,53.565754 105.21308,53.147446 C105.08493,53.147446 104.95678,53.147446 104.82863,53.147446 C104.82863,53.710022 104.82863,54.272602 104.82863,54.835182 C104.94147,54.835182 105.0543,54.835182 105.16714,54.835182 C105.16714,54.46926 105.16714,54.103344 105.16714,53.737427 C105.31867,54.103344 105.47019,54.46926 105.62172,54.835182 C105.70715,54.835182 105.79259,54.835182 105.87802,54.835182 C106.02874,54.46926 106.17947,54.103344 106.33018,53.737427 C106.33018,54.103344 106.33018,54.46926 106.33018,54.835182 C106.443016,54.835182 106.555855,54.835182 106.66869,54.835182 C106.66869,54.272602 106.66869,53.710022 106.66869,53.147446 z" stroke="Black" stroke-width="0" fill="#000000" fill-opacity="1" />
    <path d="M104.582,53.147446 C104.169334,53.147446 103.75667,53.147446 103.344,53.147446 C103.344,53.23852 103.344,53.3296 103.344,53.420677 C103.49391,53.420677 103.64383,53.420677 103.79375,53.420677 C103.79375,53.892178 103.79375,54.36368 103.79375,54.835182 C103.906586,54.835182 104.01942,54.835182 104.132256,54.835182 C104.132256,54.36368 104.132256,53.892178 104.132256,53.420677 C104.282166,53.420677 104.43208,53.420677 104.582,53.420677 C104.582,53.3296 104.582,53.23852 104.582,53.147446 z" stroke="Black" stroke-width="0" fill="#000000" fill-opacity="1" />
    <path d="M106.66869,53.147446 L106.28665,53.147446 L105.74987,54.402367 L105.21308,53.147446 L104.82863,53.147446 L104.82863,54.835182 L105.16714,54.835182 L105.16714,53.737427 L105.62172,54.835182 L105.87802,54.835182 L106.33018,53.737427 L106.33018,54.835182 L106.66869,54.835182 z" stroke="#000000" stroke-width="0.24" stroke-linecap="round" stroke-linejoin="round" fill="none" />
    <path d="M104.582,53.147446 L103.344,53.147446 L103.344,53.420677 L103.79375,53.420677 L103.79375,54.835182 L104.132256,54.835182 L104.132256,53.420677 L104.582,53.420677 z" stroke="#000000" stroke-width="0.24" stroke-linecap="round" stroke-linejoin="round" fill="none" />
    <path d="M8.156744,49.20159 C8.365566,49.374252 8.508994,49.514286 8.637842,49.666878 C8.970591,50.060947 9.206092,50.538776 9.538517,51.21124 C9.870941,51.883705 10.300289,52.750805 10.860714,53.291428 C11.42114,53.832058 12.112641,54.04621 12.6342745,54.120564 C13.155908,54.194916 13.507671,54.129463 14.003602,53.85699 C14.332651,53.67621 14.725167,53.404293 14.944804,53.03868 C14.950381,53.029396 14.955848,53.02005 14.961731,53.011417 C14.302418,50.39965 10.727926,48.39844 8.156744,49.20159 z" stroke="Black" stroke-width="0" fill="#000000" fill-opacity="1" />
    <path d="M3.8707342,53.114716 C4.2866993,53.700108 5.000333,54.081394 5.726637,54.118843 C6.452941,54.156296 7.191916,53.849903 7.677185,53.31385 C8.162455,52.777794 8.394018,52.01207 8.284697,51.29306 C8.175376,50.574055 7.725171,49.90177 7.101397,49.545933 C5.613897,50.163765 4.3379436,51.573257 3.8707342,53.114716 z" stroke="Black" stroke-width="0" fill="#000000" fill-opacity="1" />
    <path d="M15.276598,60.685112 C14.119896,60.83744 12.60515,60.63109 11.668375,60.387516 C11.196946,60.264942 10.871893,60.132942 10.48785,59.75769 C10.1038065,59.382435 9.660774,58.76393 9.310382,58.072437 C8.9599905,57.380943 8.702239,56.61646 8.162373,55.924416 C7.892438,55.5784 7.5519753,55.25049 7.0707417,55.050274 C6.5895076,54.850056 5.9675026,54.77754 5.6430626,54.770626 C5.318623,54.76371 5.291748,54.822407 5.2153873,54.85141 C5.1390266,54.880417 5.01318,54.879734 4.7762394,55.002567 C4.4457006,55.173923 3.8989627,55.585655 3.69677,56.014793 C4.0601377,58.053207 5.915401,59.9595 7.899354,60.480774 C7.929605,60.48872 7.959885,60.49635 7.9902043,60.503895 C10.327384,61.085636 12.895971,61.195312 15.276598,60.685112 z" stroke="Black" stroke-width="0" fill="#000000" fill-opacity="1" />
    <path d="M15.276599,60.685112 A9.935622,9.935622 0 0 1 11.57946,60.353783 C11.260563,60.26302 10.77731,59.99809 10.48785,59.75769 A4.328554,4.328554 0 0 1 9.310383,58.072437 C8.724102,56.784584 8.569559,56.487762 8.270287,56.073196 A2.9891796,2.9891796 0 0 0 5.6430626,54.770626 C5.355503,54.80315 5.069817,54.87917 4.804117,54.99385 A2.4739525,2.4739525 0 0 0 3.6967697,56.014793 A5.907517,5.907517 0 0 0 7.911575,60.45523 L7.9858465,60.474384 A15.785752,15.785752 0 0 0 15.276599,60.685112" stroke="#000000" stroke-width="0.24" stroke-linecap="round" stroke-linejoin="round" fill="none" />
    <path d="M3.8707342,53.11471 A5.843224,5.843224 0 0 1 7.101397,49.545933 A2.4578567,2.4578567 0 1 1 3.8707342,53.11471" stroke="#000000" stroke-width="0.24" stroke-linecap="round" stroke-linejoin="round" fill="none" />
    <path d="M8.156744,49.20159 A5.843224,5.843224 0 0 1 14.961731,53.011417 C14.956037,53.020306 14.950273,53.029144 14.944439,53.03794 A2.4344547,2.4344547 0 0 1 13.983456,53.880165 C13.593419,54.06905 13.051293,54.16717 12.6342745,54.120564 A2.9386618,2.9386618 0 0 1 10.860714,53.29143 A6.536808,6.536808 0 0 1 9.538517,51.21124 C9.084701,50.298702 8.937518,50.04113 8.687306,49.72959 C8.525303,49.530506 8.340716,49.34791 8.139881,49.18808 z" stroke="#000000" stroke-width="0.24" stroke-linecap="round" stroke-linejoin="round" fill="none" />
    <path d="M24.077784,51.545467 L18.236074,51.545467 L18.236074,52.83475 L20.358257,52.83475 L20.358257,59.50936 L21.9556,59.50936 L21.9556,52.83475 L24.077784,52.83475 z" stroke="#000000" stroke-width="0.24" stroke-linecap="round" stroke-linejoin="round" fill="none" />
    <path d="M26.838903,54.169674 L26.838903,53.188446 L25.241562,53.188446 L25.241562,59.50936 L26.838903,59.50936 L26.838903,56.360313 A1.3323048,1.3323048 0 0 1 28.356379,54.77438 L28.778532,54.774384 L28.778532,53.09717 A2.1978238,2.1978238 0 0 0 26.838903,54.169674" stroke="#000000" stroke-width="0.24" stroke-linecap="round" stroke-linejoin="round" fill="none" />
    <path d="M29.440289,56.326084 A2.8372307,2.8372307 0 0 0 34.414867,58.585182 L34.41487,59.50936 L36.02362,59.50936 L36.02362,53.188446 L34.41487,53.188446 L34.41487,54.089806 A2.8428924,2.8428924 0 0 0 29.440289,56.326084" stroke="#000000" stroke-width="0.24" stroke-linecap="round" stroke-linejoin="round" fill="none" />
    <path d="M34.41487,56.348904 C34.41487,55.96098 34.338806,55.6282 34.186676,55.350563 C34.03455,55.072933 33.829178,54.85995 33.57056,54.711628 C33.311943,54.5633 33.03431,54.48914 32.73766,54.48914 C32.441013,54.48914 32.167183,54.5614 31.91617,54.70592 C31.665157,54.850445 31.461687,55.06152 31.305758,55.339157 C31.149826,55.616787 31.07186,55.945766 31.07186,56.326084 C31.07186,56.706406 31.149826,57.039185 31.305758,57.32442 C31.461687,57.609665 31.66706,57.828346 31.921875,57.980476 C32.17669,58.132603 32.44862,58.208668 32.73766,58.208668 C33.03431,58.208668 33.311943,58.134502 33.57056,57.98618 C33.829178,57.837852 34.03455,57.624878 34.186676,57.34724 C34.338806,57.06961 34.41487,56.73683 34.41487,56.348904 z" stroke="#000000" stroke-width="0.24" stroke-linecap="round" stroke-linejoin="round" fill="none" />
    <path d="M37.17599,56.326084 A2.8265095,2.8265095 0 0 0 42.13916,58.573772 L42.13916,59.50936 L43.759323,59.50936 L43.759323,51.066265 L42.13916,51.066265 L42.13916,54.066986 A2.8486066,2.8486066 0 0 0 37.17599,56.326084" stroke="#000000" stroke-width="0.24" stroke-linecap="round" stroke-linejoin="round" fill="none" />
    <path d="M42.15057,56.348904 C42.15057,55.96098 42.074505,55.6282 41.92238,55.350563 C41.77025,55.072933 41.56488,54.85995 41.30626,54.711628 C41.04764,54.5633 40.77001,54.48914 40.473362,54.48914 C40.176712,54.48914 39.90288,54.5614 39.65187,54.70592 C39.40086,54.850445 39.197388,55.06152 39.04146,55.339157 C38.885525,55.616787 38.80756,55.945766 38.80756,56.326084 C38.80756,56.706406 38.885525,57.039185 39.04146,57.32442 C39.197388,57.609665 39.402763,57.828346 39.657578,57.980476 C39.912388,58.132603 40.18432,58.208668 40.473362,58.208668 C40.77001,58.208668 41.04764,58.134502 41.30626,57.98618 C41.56488,57.837852 41.77025,57.624878 41.92238,57.34724 C42.074505,57.06961 42.15057,56.73683 42.15057,56.348904 z" stroke="#000000" stroke-width="0.24" stroke-linecap="round" stroke-linejoin="round" fill="none" />
    <path d="M51.19837,56.211987 C51.19837,55.59587 51.06716,55.050114 50.804745,54.574715 C50.54232,54.09931 50.173412,53.732304 49.698013,53.47369 C49.222614,53.215073 48.68446,53.085762 48.083553,53.085762 C47.45983,53.085762 46.90837,53.218872 46.429165,53.485096 C45.949963,53.75132 45.57725,54.13164 45.311028,54.626057 C45.044804,55.12047 44.911694,55.694756 44.911694,56.348904 C44.911694,56.99545 45.046703,57.56593 45.31673,58.06034 C45.586758,58.554756 45.963272,58.936977 46.44628,59.20701 C46.929287,59.47703 47.475044,59.612045 48.083553,59.612045 C48.836586,59.612045 49.47172,59.416183 49.988956,59.024452 C50.50619,58.63272 50.856087,58.132603 51.03864,57.524094 L49.315792,57.524094 A1.4844958,1.4844958 0 0 1 46.531853,56.828106 L51.152737,56.82811 C51.18316,56.645554 51.19837,56.44018 51.19837,56.211987 z" stroke="#000000" stroke-width="0.24" stroke-linecap="round" stroke-linejoin="round" fill="none" />
    <path d="M49.543983,55.755604 A1.5078502,1.5078502 0 0 0 46.543262,55.755604 z" stroke="#000000" stroke-width="0.24" stroke-linecap="round" stroke-linejoin="round" fill="none" />
    <path d="M55.35146,51.545467 L52.362152,51.545467 L52.362152,59.50936 L53.95949,59.50936 L53.95949,56.405952 L54.712524,56.405952 L56.4696,59.50936 L58.317955,59.50936 L56.41255,56.280445 A2.4279544,2.4279544 0 0 0 55.351463,51.545467" stroke="#000000" stroke-width="0.24" stroke-linecap="round" stroke-linejoin="round" fill="none" />
    <path d="M55.294415,55.207947 A1.1750598,1.1750598 0 1 0 55.294415,52.86898 L53.95949,52.86898 L53.95949,55.207947 z" stroke="#000000" stroke-width="0.24" stroke-linecap="round" stroke-linejoin="round" fill="none" />
    <path d="M65.551636,56.211987 C65.551636,55.59587 65.420425,55.050114 65.158,54.574715 C64.895584,54.09931 64.52667,53.732304 64.05128,53.47369 C63.575874,53.215073 63.03772,53.085762 62.436817,53.085762 C61.813095,53.085762 61.26163,53.218872 60.78243,53.485096 C60.303223,53.75132 59.93051,54.13164 59.664288,54.626057 C59.398064,55.12047 59.264954,55.694756 59.264954,56.348904 C59.264954,56.99545 59.399963,57.56593 59.669994,58.06034 C59.940018,58.554756 60.316536,58.936977 60.79954,59.20701 C61.282547,59.47703 61.82831,59.612045 62.436817,59.612045 C63.18985,59.612045 63.824986,59.416183 64.342224,59.024452 C64.85945,58.63272 65.20935,58.132603 65.3919,57.524094 L63.669052,57.524094 A1.4844958,1.4844958 0 0 1 60.885113,56.828106 L65.506,56.82811 C65.53642,56.645554 65.551636,56.44018 65.551636,56.211987 z" stroke="#000000" stroke-width="0.24" stroke-linecap="round" stroke-linejoin="round" fill="none" />
    <path d="M63.897243,55.755604 A1.5078502,1.5078502 0 0 0 60.896523,55.755604 z" stroke="#000000" stroke-width="0.24" stroke-linecap="round" stroke-linejoin="round" fill="none" />
    <path d="M68.31275,54.10121 L68.31275,53.188446 L66.715416,53.188446 L66.715416,62.521496 L68.31275,62.521496 L68.31275,58.608 C68.53334,58.897045 68.82048,59.136646 69.17418,59.326805 C69.52788,59.516968 69.936714,59.612045 70.40071,59.612045 C70.940765,59.612045 71.429474,59.475132 71.86684,59.2013 C72.304214,58.92747 72.6503,58.541447 72.90511,58.04323 C73.15993,57.54501 73.28733,56.97263 73.28733,56.326084 C73.28733,55.679543 73.15993,55.110962 72.90511,54.62035 C72.6503,54.129738 72.304214,53.75132 71.86684,53.485096 C71.429474,53.218872 70.940765,53.085762 70.40071,53.085762 C69.936714,53.085762 69.52407,53.182743 69.162766,53.376705 C68.80146,53.570667 68.51813,53.812176 68.31275,54.10121 z" stroke="#000000" stroke-width="0.24" stroke-linecap="round" stroke-linejoin="round" fill="none" />
    <path d="M71.65576,56.326084 C71.65576,55.945766 71.5778,55.616787 71.42187,55.339157 C71.26594,55.06152 71.06057,54.850445 70.80575,54.70592 C70.550934,54.5614 70.27521,54.48914 69.97855,54.48914 C69.68951,54.48914 69.41758,54.5633 69.162766,54.711628 C68.90796,54.85995 68.70258,55.074833 68.54665,55.35627 C68.39072,55.637707 68.31275,55.968586 68.31275,56.348904 C68.31275,56.729225 68.39072,57.060104 68.54665,57.341537 C68.70258,57.622974 68.90796,57.837852 69.162766,57.98618 C69.41758,58.134502 69.68951,58.208668 69.97855,58.208668 C70.27521,58.208668 70.550934,58.132603 70.80575,57.980476 C71.06057,57.828346 71.26594,57.611565 71.42187,57.330128 C71.5778,57.04869 71.65576,56.714012 71.65576,56.326084 z" stroke="#000000" stroke-width="0.24" stroke-linecap="round" stroke-linejoin="round" fill="none" />
    <path d="M78.80958,58.71069 L78.80958,59.50936 L80.41833,59.50936 L80.41833,53.188446 L78.80958,53.188446 L78.80958,56.668373 A1.4166743,1.4166743 0 1 1 75.99141,56.668373 L75.99141,53.188446 L74.394066,53.188446 L74.394066,56.896564 A2.5072846,2.5072846 0 0 0 78.80958,58.71069" stroke="#000000" stroke-width="0.24" stroke-linecap="round" stroke-linejoin="round" fill="none" />
    <path d="M83.590195,54.112625 L83.590195,51.066265 L81.99285,51.066265 L81.99285,59.50936 L83.590195,59.50936 L83.590195,58.608 C83.80317,58.90465 84.08652,59.146152 84.44021,59.33251 C84.7939,59.518867 85.20655,59.612045 85.67815,59.612045 C86.2182,59.612045 86.70692,59.475132 87.14428,59.2013 C87.58164,58.92747 87.927734,58.541447 88.182556,58.04323 C88.43736,57.54501 88.56477,56.97263 88.56477,56.326084 C88.56477,55.679543 88.43736,55.110962 88.182556,54.62035 C87.927734,54.129738 87.58164,53.75132 87.14428,53.485096 C86.70692,53.218872 86.2182,53.085762 85.67815,53.085762 C85.21416,53.085762 84.80151,53.18084 84.44021,53.371 C84.0789,53.56116 83.79556,53.80837 83.590195,54.112625 z" stroke="#000000" stroke-width="0.24" stroke-linecap="round" stroke-linejoin="round" fill="none" />
    <path d="M86.933205,56.326084 C86.933205,55.945766 86.85524,55.616787 86.6993,55.339157 C86.54337,55.06152 86.338,54.850445 86.08319,54.70592 C85.82838,54.5614 85.55264,54.48914 85.256,54.48914 C84.96695,54.48914 84.69502,54.5633 84.44021,54.711628 C84.185394,54.85995 83.98002,55.074833 83.82409,55.35627 C83.66816,55.637707 83.590195,55.968586 83.590195,56.348904 C83.590195,56.729225 83.66816,57.060104 83.82409,57.341537 C83.98002,57.622974 84.185394,57.837852 84.44021,57.98618 C84.69502,58.134502 84.96695,58.208668 85.256,58.208668 C85.55264,58.208668 85.82838,58.132603 86.08319,57.980476 C86.338,57.828346 86.54337,57.611565 86.6993,57.330128 C86.85524,57.04869 86.933205,56.714012 86.933205,56.326084 z" stroke="#000000" stroke-width="0.24" stroke-linecap="round" stroke-linejoin="round" fill="none" />
    <path d="M91.3259,51.066265 L89.728546,51.066265 L89.728546,59.50936 L91.3259,59.50936 z" stroke="#000000" stroke-width="0.24" stroke-linecap="round" stroke-linejoin="round" fill="none" />
    <circle cx="93.76" cy="51.5" r="0.9366" stroke="#000000" stroke-width="0.24" fill="none" />
    <path d="M94.49776,53.188446 L92.90042,53.188446 L92.90042,59.50936 L94.49776,59.50936 z" stroke="#000000" stroke-width="0.24" stroke-linecap="round" stroke-linejoin="round" fill="none" />
    <path d="M95.66154,56.337494 A2.8722105,2.8722105 0 0 0 100.636116,58.64223 L100.63612,62.521496 L102.24487,62.521496 L102.24487,53.188446 L100.63612,53.188446 L100.63612,54.009937 A2.896436,2.896436 0 0 0 95.66154,56.337494" stroke="#000000" stroke-width="0.24" stroke-linecap="round" stroke-linejoin="round" fill="none" />
    <path d="M100.63612,56.348904 C100.63612,55.96098 100.55625,55.626297 100.396515,55.344864 C100.236786,55.063427 100.02951,54.850445 99.77469,54.70592 C99.51988,54.5614 99.247955,54.48914 98.95891,54.48914 C98.67747,54.48914 98.40935,54.5614 98.154526,54.70592 C97.89972,54.850445 97.692444,55.06152 97.53271,55.339157 C97.37298,55.616787 97.293106,55.94957 97.293106,56.337494 C97.293106,56.725418 97.37298,57.062004 97.53271,57.34724 C97.692444,57.632484 97.89972,57.847366 98.154526,57.991886 C98.40935,58.136406 98.67747,58.208668 98.95891,58.208668 C99.247955,58.208668 99.51988,58.136406 99.77469,57.991886 C100.02951,57.847366 100.236786,57.634384 100.396515,57.352947 C100.55625,57.07151 100.63612,56.73683 100.63612,56.348904 z" stroke="#000000" stroke-width="0.24" stroke-linecap="round" stroke-linejoin="round" fill="none" />
  </g>
  <g id="neon_green_01">
    <path d="M15.114579,56.30648 C14.762754,55.081894 13.113208,54.411324 11.938476,54.863194 C10.763743,55.31506 10.063825,56.88936 10.495186,58.039295 C10.926547,59.189236 12.489187,59.91481 13.671289,59.482586 C14.853391,59.050365 15.654954,57.460346 15.114579,56.30648 z" stroke="Black" stroke-width="0" fill="#008544" fill-opacity="1" />
    <circle cx="12.8" cy="57.17" r="2.467" stroke="#008544" stroke-width="0.24" fill="none" />
  </g>
</svg>